<svg width="1675" height="1589" viewBox="0 0 1675 1589" fill="none" xmlns="http://www.w3.org/2000/svg">
<mask id="path-1-outside-1_1741_186" maskUnits="userSpaceOnUse" x="866.238" y="5.45825" width="809" height="1584" fill="black">
<rect fill="white" x="866.238" y="5.45825" width="809" height="1584"/>
<path d="M1627.83 794.649C1640.49 747.644 1647.12 710.785 1648.65 678.891C1650.45 641.625 1645.18 610.14 1632.55 582.639C1619.69 554.642 1599.1 530.378 1569.59 508.461C1544.04 489.488 1510.94 471.701 1468.61 454.224C1477.44 407.953 1481.29 371.645 1480.66 340.638C1479.88 301.409 1471.63 270.308 1455.45 245.56C1439.03 220.45 1414.55 201.786 1380.6 188.501C1351.46 177.097 1313.98 169.27 1266.19 164.617C1239.99 122.712 1215.63 91.9468 1191.84 70.6822C1164.14 45.9205 1135.89 32.5943 1105.48 29.9429C1075.64 27.3472 1043.75 35.1587 1007.95 53.8355C976.358 70.3208 941.04 95.3824 896.803 132.708L889.238 139.093V1453.35L897.519 1459.74C946.442 1497.54 984.661 1522.98 1017.8 1539.78C1052.2 1557.24 1082.36 1565.79 1109.68 1565.79C1112.65 1565.79 1115.59 1565.69 1118.49 1565.49C1149.81 1563.31 1177.5 1549.8 1203.13 1524.17C1225.15 1502.17 1246.3 1470.32 1267.66 1426.97C1313.57 1421.9 1348.32 1414.42 1376.59 1403.56C1410.22 1390.63 1434.89 1372.6 1452.01 1348.43C1483.4 1304.11 1489.73 1240.3 1472.77 1136.27C1561.22 1103.73 1609.69 1068.34 1633.94 1019.01C1659.58 966.853 1657.78 899.618 1627.83 794.649ZM1452.58 1098.25L1272.71 989.123V835.091C1299.62 825.347 1318.22 799.557 1318.22 770.15C1318.22 732.07 1287.24 701.089 1249.16 701.089C1211.08 701.089 1180.1 732.07 1180.1 770.15C1180.1 801.496 1200.9 828.249 1230.09 836.555V1013.12L1429.15 1133.9C1444.51 1222.93 1442.47 1279.85 1422.42 1315.59L1097.8 1119.16V987.578C1124.71 977.834 1143.31 952.044 1143.31 922.635C1143.31 884.555 1112.33 853.575 1074.25 853.575C1036.17 853.575 1005.19 884.555 1005.19 922.635C1005.19 953.983 1025.99 980.736 1055.18 989.042V1143.18L1065.46 1149.41L1392.88 1347.54C1364.47 1367.15 1319.75 1379.14 1251.57 1385.78L1239.55 1386.96L1234.38 1397.88C1213.63 1441.71 1193.86 1472.85 1173.94 1493.08C1155.32 1511.99 1136.76 1521.49 1115.53 1522.97C1093.84 1524.48 1068.17 1517.55 1037.08 1501.78C1013.26 1489.7 985.469 1471.97 952.486 1447.8L1073.08 1382.27C1085.65 1393.53 1101.92 1399.82 1119.1 1399.82C1157.18 1399.82 1188.16 1368.84 1188.16 1330.76C1188.16 1292.68 1157.18 1261.7 1119.1 1261.7C1081.02 1261.7 1050.04 1292.68 1050.04 1330.76C1050.04 1335.74 1050.56 1340.64 1051.6 1345.43L931.859 1410.5V158.946C969.65 127.57 1001.03 105.521 1027.67 91.6236C1037.39 86.5533 1046.5 82.524 1055.18 79.4624V385.319C1025.99 393.627 1005.19 420.379 1005.19 451.724C1005.19 489.805 1036.17 520.786 1074.25 520.786C1112.33 520.786 1143.31 489.805 1143.31 451.724C1143.31 422.315 1124.71 396.525 1097.8 386.782V72.1519C1099.14 72.2066 1100.46 72.2906 1101.78 72.4048C1122.98 74.2534 1143.46 84.357 1164.36 103.293C1186.36 123.217 1209.61 153.526 1235.44 195.966L1241.07 205.194L1251.83 206.107C1300 210.205 1336.65 217.279 1363.89 227.736C1389.93 237.731 1408.21 251.19 1419.77 268.882C1431.45 286.75 1437.43 310.5 1438.05 341.493C1438.63 370.127 1434.6 406.107 1425.75 451.343L1290.65 530.909V404.545C1317.56 394.801 1336.16 369.011 1336.16 339.603C1336.16 301.523 1305.18 270.543 1267.1 270.543C1229.02 270.543 1198.04 301.523 1198.04 339.603C1198.04 370.949 1218.84 397.702 1248.03 406.008V556.011L1124.53 628.748C1111.99 617.612 1095.81 611.392 1078.73 611.392C1040.65 611.392 1009.67 642.373 1009.67 680.454C1009.67 718.535 1040.65 749.513 1078.73 749.513C1116.81 749.513 1147.8 718.534 1147.8 680.454C1147.8 675.377 1147.25 670.368 1146.16 665.472L1443.82 490.162C1527.16 523.486 1573.44 557.3 1593.28 599.253L1427.42 697.454V842.776C1398.23 851.083 1377.43 877.835 1377.43 909.18C1377.43 947.261 1408.41 978.242 1446.49 978.242C1484.57 978.242 1515.55 947.261 1515.55 909.18C1515.55 879.774 1496.96 853.985 1470.05 844.24V721.753L1605.08 641.801C1609.31 677.908 1602.93 724.476 1585.15 789.183L1583.56 794.999L1585.24 800.77C1613.52 897.931 1616.65 957.576 1595.7 1000.21C1576.26 1039.75 1533.31 1069.23 1452.58 1098.25Z"/>
</mask>
<path d="M1627.83 794.649C1640.49 747.644 1647.12 710.785 1648.65 678.891C1650.45 641.625 1645.18 610.14 1632.55 582.639C1619.69 554.642 1599.1 530.378 1569.59 508.461C1544.04 489.488 1510.94 471.701 1468.61 454.224C1477.44 407.953 1481.29 371.645 1480.66 340.638C1479.88 301.409 1471.63 270.308 1455.45 245.56C1439.03 220.45 1414.55 201.786 1380.6 188.501C1351.46 177.097 1313.98 169.27 1266.19 164.617C1239.99 122.712 1215.63 91.9468 1191.84 70.6822C1164.14 45.9205 1135.89 32.5943 1105.48 29.9429C1075.64 27.3472 1043.75 35.1587 1007.95 53.8355C976.358 70.3208 941.04 95.3824 896.803 132.708L889.238 139.093V1453.35L897.519 1459.74C946.442 1497.54 984.661 1522.98 1017.8 1539.78C1052.2 1557.24 1082.36 1565.79 1109.68 1565.79C1112.65 1565.79 1115.59 1565.69 1118.49 1565.49C1149.81 1563.31 1177.5 1549.8 1203.13 1524.17C1225.15 1502.17 1246.3 1470.32 1267.66 1426.97C1313.57 1421.9 1348.32 1414.42 1376.59 1403.56C1410.22 1390.63 1434.89 1372.6 1452.01 1348.43C1483.4 1304.11 1489.73 1240.3 1472.77 1136.27C1561.22 1103.73 1609.69 1068.34 1633.94 1019.01C1659.58 966.853 1657.78 899.618 1627.83 794.649ZM1452.58 1098.25L1272.71 989.123V835.091C1299.62 825.347 1318.22 799.557 1318.22 770.15C1318.22 732.07 1287.24 701.089 1249.16 701.089C1211.08 701.089 1180.1 732.07 1180.1 770.15C1180.1 801.496 1200.9 828.249 1230.09 836.555V1013.12L1429.15 1133.9C1444.51 1222.93 1442.47 1279.85 1422.42 1315.59L1097.8 1119.16V987.578C1124.71 977.834 1143.31 952.044 1143.31 922.635C1143.31 884.555 1112.33 853.575 1074.25 853.575C1036.17 853.575 1005.19 884.555 1005.19 922.635C1005.19 953.983 1025.99 980.736 1055.18 989.042V1143.18L1065.46 1149.41L1392.88 1347.54C1364.47 1367.15 1319.75 1379.14 1251.57 1385.78L1239.55 1386.96L1234.38 1397.88C1213.63 1441.71 1193.86 1472.85 1173.94 1493.08C1155.32 1511.99 1136.76 1521.49 1115.53 1522.97C1093.84 1524.48 1068.17 1517.55 1037.08 1501.78C1013.26 1489.7 985.469 1471.97 952.486 1447.8L1073.08 1382.27C1085.65 1393.53 1101.92 1399.82 1119.1 1399.82C1157.18 1399.82 1188.16 1368.84 1188.16 1330.76C1188.16 1292.68 1157.18 1261.7 1119.1 1261.7C1081.02 1261.7 1050.04 1292.68 1050.04 1330.76C1050.04 1335.74 1050.56 1340.64 1051.6 1345.43L931.859 1410.5V158.946C969.65 127.57 1001.03 105.521 1027.67 91.6236C1037.39 86.5533 1046.5 82.524 1055.18 79.4624V385.319C1025.99 393.627 1005.19 420.379 1005.19 451.724C1005.19 489.805 1036.17 520.786 1074.25 520.786C1112.33 520.786 1143.31 489.805 1143.31 451.724C1143.31 422.315 1124.71 396.525 1097.8 386.782V72.1519C1099.14 72.2066 1100.46 72.2906 1101.78 72.4048C1122.98 74.2534 1143.46 84.357 1164.36 103.293C1186.36 123.217 1209.61 153.526 1235.44 195.966L1241.07 205.194L1251.83 206.107C1300 210.205 1336.65 217.279 1363.89 227.736C1389.93 237.731 1408.21 251.19 1419.77 268.882C1431.45 286.75 1437.43 310.5 1438.05 341.493C1438.63 370.127 1434.6 406.107 1425.75 451.343L1290.65 530.909V404.545C1317.56 394.801 1336.16 369.011 1336.16 339.603C1336.16 301.523 1305.18 270.543 1267.1 270.543C1229.02 270.543 1198.04 301.523 1198.04 339.603C1198.04 370.949 1218.84 397.702 1248.03 406.008V556.011L1124.53 628.748C1111.99 617.612 1095.81 611.392 1078.73 611.392C1040.65 611.392 1009.67 642.373 1009.67 680.454C1009.67 718.535 1040.65 749.513 1078.73 749.513C1116.81 749.513 1147.8 718.534 1147.8 680.454C1147.8 675.377 1147.25 670.368 1146.16 665.472L1443.82 490.162C1527.16 523.486 1573.44 557.3 1593.28 599.253L1427.42 697.454V842.776C1398.23 851.083 1377.43 877.835 1377.43 909.18C1377.43 947.261 1408.41 978.242 1446.49 978.242C1484.57 978.242 1515.55 947.261 1515.55 909.18C1515.55 879.774 1496.96 853.985 1470.05 844.24V721.753L1605.08 641.801C1609.31 677.908 1602.93 724.476 1585.15 789.183L1583.56 794.999L1585.24 800.77C1613.52 897.931 1616.65 957.576 1595.7 1000.21C1576.26 1039.75 1533.31 1069.23 1452.58 1098.25Z" fill="url(#paint0_linear_1741_186)"/>
<path d="M1627.83 794.649C1640.49 747.644 1647.12 710.785 1648.65 678.891C1650.45 641.625 1645.18 610.14 1632.55 582.639C1619.69 554.642 1599.1 530.378 1569.59 508.461C1544.04 489.488 1510.94 471.701 1468.61 454.224C1477.44 407.953 1481.29 371.645 1480.66 340.638C1479.88 301.409 1471.63 270.308 1455.45 245.56C1439.03 220.45 1414.55 201.786 1380.6 188.501C1351.46 177.097 1313.98 169.27 1266.19 164.617C1239.99 122.712 1215.63 91.9468 1191.84 70.6822C1164.14 45.9205 1135.89 32.5943 1105.48 29.9429C1075.64 27.3472 1043.75 35.1587 1007.95 53.8355C976.358 70.3208 941.04 95.3824 896.803 132.708L889.238 139.093V1453.35L897.519 1459.74C946.442 1497.54 984.661 1522.98 1017.8 1539.78C1052.2 1557.24 1082.36 1565.79 1109.68 1565.79C1112.65 1565.79 1115.59 1565.69 1118.49 1565.49C1149.81 1563.31 1177.5 1549.8 1203.13 1524.17C1225.15 1502.17 1246.3 1470.32 1267.66 1426.97C1313.57 1421.9 1348.32 1414.42 1376.59 1403.56C1410.22 1390.63 1434.89 1372.6 1452.01 1348.43C1483.4 1304.11 1489.73 1240.3 1472.77 1136.27C1561.22 1103.73 1609.69 1068.34 1633.94 1019.01C1659.58 966.853 1657.78 899.618 1627.83 794.649ZM1452.58 1098.25L1272.71 989.123V835.091C1299.62 825.347 1318.22 799.557 1318.22 770.15C1318.22 732.07 1287.24 701.089 1249.16 701.089C1211.08 701.089 1180.1 732.07 1180.1 770.15C1180.1 801.496 1200.9 828.249 1230.09 836.555V1013.12L1429.15 1133.9C1444.51 1222.93 1442.47 1279.85 1422.42 1315.59L1097.8 1119.16V987.578C1124.71 977.834 1143.31 952.044 1143.31 922.635C1143.31 884.555 1112.33 853.575 1074.25 853.575C1036.17 853.575 1005.19 884.555 1005.19 922.635C1005.19 953.983 1025.99 980.736 1055.18 989.042V1143.18L1065.46 1149.41L1392.88 1347.54C1364.47 1367.15 1319.75 1379.14 1251.57 1385.78L1239.55 1386.96L1234.38 1397.88C1213.63 1441.71 1193.86 1472.85 1173.94 1493.08C1155.32 1511.99 1136.76 1521.49 1115.53 1522.97C1093.84 1524.48 1068.17 1517.55 1037.08 1501.78C1013.26 1489.7 985.469 1471.97 952.486 1447.8L1073.08 1382.27C1085.65 1393.53 1101.92 1399.82 1119.1 1399.82C1157.18 1399.82 1188.16 1368.84 1188.16 1330.76C1188.16 1292.68 1157.18 1261.7 1119.1 1261.7C1081.02 1261.7 1050.04 1292.68 1050.04 1330.76C1050.04 1335.74 1050.56 1340.64 1051.6 1345.43L931.859 1410.5V158.946C969.65 127.57 1001.03 105.521 1027.67 91.6236C1037.39 86.5533 1046.5 82.524 1055.18 79.4624V385.319C1025.99 393.627 1005.19 420.379 1005.19 451.724C1005.19 489.805 1036.17 520.786 1074.25 520.786C1112.33 520.786 1143.31 489.805 1143.31 451.724C1143.31 422.315 1124.71 396.525 1097.8 386.782V72.1519C1099.14 72.2066 1100.46 72.2906 1101.78 72.4048C1122.98 74.2534 1143.46 84.357 1164.36 103.293C1186.36 123.217 1209.61 153.526 1235.44 195.966L1241.07 205.194L1251.83 206.107C1300 210.205 1336.65 217.279 1363.89 227.736C1389.93 237.731 1408.21 251.19 1419.77 268.882C1431.45 286.75 1437.43 310.5 1438.05 341.493C1438.63 370.127 1434.6 406.107 1425.75 451.343L1290.65 530.909V404.545C1317.56 394.801 1336.16 369.011 1336.16 339.603C1336.16 301.523 1305.18 270.543 1267.1 270.543C1229.02 270.543 1198.04 301.523 1198.04 339.603C1198.04 370.949 1218.84 397.702 1248.03 406.008V556.011L1124.53 628.748C1111.99 617.612 1095.81 611.392 1078.73 611.392C1040.65 611.392 1009.67 642.373 1009.67 680.454C1009.67 718.535 1040.65 749.513 1078.73 749.513C1116.81 749.513 1147.8 718.534 1147.8 680.454C1147.8 675.377 1147.25 670.368 1146.16 665.472L1443.82 490.162C1527.16 523.486 1573.44 557.3 1593.28 599.253L1427.42 697.454V842.776C1398.23 851.083 1377.43 877.835 1377.43 909.18C1377.43 947.261 1408.41 978.242 1446.49 978.242C1484.57 978.242 1515.55 947.261 1515.55 909.18C1515.55 879.774 1496.96 853.985 1470.05 844.24V721.753L1605.08 641.801C1609.31 677.908 1602.93 724.476 1585.15 789.183L1583.56 794.999L1585.24 800.77C1613.52 897.931 1616.65 957.576 1595.7 1000.21C1576.26 1039.75 1533.31 1069.23 1452.58 1098.25Z" stroke="white" stroke-width="46" mask="url(#path-1-outside-1_1741_186)"/>
<mask id="path-2-outside-2_1741_186" maskUnits="userSpaceOnUse" x="0" y="-1" width="850" height="1587" fill="black">
<rect fill="white" y="-1" width="850" height="1587"/>
<path d="M703.701 49.8794C667.299 29.6929 634.787 21.022 604.305 23.3765C556.727 27.0503 514.683 56.6744 468.771 119.136C465.106 118.417 461.365 118.054 457.576 118.054C428.713 118.054 404.72 139.302 400.416 166.977C323.636 190.419 277.57 219.311 251.673 260.068C227.241 298.516 221.124 346.609 232.134 415.134C216.53 425.79 206.879 443.622 206.879 462.934C206.879 464.797 206.967 466.653 207.144 468.497C136.826 500.861 95.8667 534.398 74.9663 576.483C57.2319 612.193 54.1494 654.153 65.437 707.894C39.3433 722.885 23 750.66 23 781.359C23 812.679 39.8355 840.751 66.6919 855.542C53.6382 927.557 58.3926 980.294 81.4834 1020.92C94.5146 1043.84 113.373 1063.03 139.134 1079.57C159.599 1092.71 184.181 1104.16 215.9 1115.28C215.866 1116.09 215.849 1116.91 215.849 1117.72C215.849 1137.26 225.657 1155.2 241.513 1165.81C235.729 1201.66 233.139 1231.92 233.602 1258.06C234.35 1300.33 243.285 1332.64 260.914 1356.84C278.293 1380.7 303.95 1396.63 339.349 1405.55C356.917 1409.98 377.3 1412.8 401.395 1414.13C403.95 1424.56 409.382 1434.1 417.25 1441.75C428.108 1452.31 442.429 1458.12 457.576 1458.12C461.474 1458.12 465.318 1457.74 469.08 1456.98C485.465 1481.37 501.187 1500.79 516.979 1516.18C545.615 1544.08 574.937 1558.99 606.623 1561.74C610.146 1562.05 613.693 1562.2 617.273 1562.2C644.81 1562.2 674.131 1553.14 706.528 1534.67C738.633 1516.35 774.547 1488.62 819.554 1447.38L826.466 1441.04V144.042L819.476 137.697C774.451 96.8394 736.581 68.1148 703.701 49.8794ZM610.316 1519.28C588.824 1517.41 568.023 1506.41 546.722 1485.65C533.157 1472.44 519.386 1455.38 504.782 1433.69C511.63 1423.99 515.425 1412.27 515.425 1400.27C515.425 1385.29 509.636 1371.08 499.531 1360.44L610.711 1171.44C619.129 1174.18 627.919 1175.57 636.971 1175.57C642.344 1175.57 647.671 1175.07 652.903 1174.07L777.394 1428.03C741.381 1460.1 711.232 1482.91 685.412 1497.64C656.584 1514.08 632.018 1521.17 610.316 1519.28ZM504.656 142.304C541.889 92.147 573.875 68.4761 607.587 65.8736C629.483 64.1792 654.158 71.1421 683.029 87.1548C708.449 101.252 737.553 122.614 771.69 152.252L599.222 279.336C584.432 267.811 566.354 261.57 547.273 261.57C541.449 261.57 535.69 262.157 530.053 263.322L502.892 211.86C510.946 201.708 515.425 189.06 515.425 175.903C515.425 163.805 511.588 152.041 504.656 142.304ZM625.259 313.094L783.843 196.242V588.753L617.35 394.016C626.879 380.032 632.031 363.464 632.031 346.329C632.031 334.845 629.712 323.545 625.259 313.094ZM783.843 978.753V1065.46L718.394 1067.21C710.853 1041.15 691.136 1020.18 665.626 1011.02L684.338 882.383L783.843 978.753ZM420.586 904.813L497.419 774.681C507.5 778.775 518.336 780.904 529.334 780.904C543.426 780.904 557.042 777.482 569.264 770.932L646.586 845.82L623.115 1007.17C604.777 1010.16 588.136 1019.01 575.396 1032.54L438.962 952.357C439.108 950.678 439.182 948.991 439.182 947.299C439.182 931.012 432.279 915.641 420.586 904.813ZM180.523 737.871L346.817 568.993L452.312 660.729C448.385 669.263 445.909 678.4 444.985 687.79L182.948 742.203C182.182 740.735 181.374 739.292 180.523 737.871ZM602.783 653.836C590.813 633.157 570.458 618.348 547.181 613.294L559.932 430.147C568.773 428.823 577.312 426.115 585.287 422.104L754.67 620.222L602.783 653.836ZM517.516 425.71L504.328 615.136C495.337 617.902 486.898 622.146 479.303 627.715L376.779 538.564L498.092 415.366C504.095 419.648 510.624 423.126 517.516 425.71ZM192.482 783.754L451.591 729.951C454.56 736.768 458.424 743.18 463.079 749.009L380.152 889.463C368.486 889.695 357.414 893.349 348.065 899.952L189.519 803.785C191.302 797.282 192.294 790.583 192.482 783.754ZM381.334 1005.15C395.558 1005.15 409.265 999.82 419.767 990.515L554.818 1069.89C554.479 1071.23 554.172 1072.57 553.899 1073.92L322.72 1087C321.111 1084.44 319.304 1082.01 317.314 1079.73L363.084 1002.2C368.935 1004.15 375.092 1005.15 381.334 1005.15ZM614.092 696.146C614.092 695.76 614.089 695.376 614.084 694.99L783.843 657.419V919.418L600.635 741.98C609.375 728.388 614.092 712.496 614.092 696.146ZM719.572 1109.81L783.843 1108.09V1344.35L691.402 1155.78C705.488 1143.92 715.432 1127.7 719.572 1109.81ZM409.875 208.666C420.519 224.197 438.209 233.752 457.576 233.752C460.389 233.752 463.18 233.55 465.934 233.152L491.824 282.207C473.29 298.198 462.516 321.411 462.516 346.329C462.516 358.929 465.293 371.262 470.615 382.522L344.554 510.543L317.393 486.923C320.805 479.458 322.576 471.332 322.576 462.934C322.576 434.128 301.413 410.173 273.817 405.799C265.105 349.718 269.46 311.549 287.647 282.926C307.431 251.792 345.329 228.7 409.875 208.666ZM226.61 506.464C237.073 515.659 250.508 520.784 264.727 520.784C272.239 520.784 279.623 519.334 286.498 516.542L314.591 540.97L150.17 707.947C137.347 700.495 122.886 696.602 107.758 696.602C107.383 696.602 107.008 696.605 106.632 696.61C98.0107 653.988 100.13 621.639 113.141 595.442C129.577 562.346 164.73 534.719 226.61 506.464ZM108.104 866.117C130.774 866.022 152.491 856.714 168.236 840.726L324.665 935.608C323.88 939.428 323.485 943.334 323.485 947.299C323.485 956.807 325.756 965.968 330.11 974.217L279.375 1060.15C277.493 1059.97 275.599 1059.87 273.697 1059.87C258.59 1059.87 244.113 1065.86 233.402 1076.23C171.232 1054.81 136.664 1031.74 118.539 999.855C100.92 968.859 97.5508 926.169 108.104 866.117ZM283.242 1174.78C306.839 1170.85 325.651 1152.58 330.39 1129.26L556.175 1116.48C559.945 1128.34 566.306 1139.26 574.798 1148.42L460.628 1342.5C459.611 1342.45 458.593 1342.42 457.576 1342.42C436.568 1342.42 417.386 1353.89 407.238 1371.75C384.344 1370.65 365.478 1368.17 349.765 1364.22C324.074 1357.74 306.788 1347.43 295.365 1331.75C283.069 1314.87 276.806 1290.52 276.218 1257.31C275.808 1234.22 278.109 1207.14 283.242 1174.78Z"/>
</mask>
<path d="M703.701 49.8794C667.299 29.6929 634.787 21.022 604.305 23.3765C556.727 27.0503 514.683 56.6744 468.771 119.136C465.106 118.417 461.365 118.054 457.576 118.054C428.713 118.054 404.72 139.302 400.416 166.977C323.636 190.419 277.57 219.311 251.673 260.068C227.241 298.516 221.124 346.609 232.134 415.134C216.53 425.79 206.879 443.622 206.879 462.934C206.879 464.797 206.967 466.653 207.144 468.497C136.826 500.861 95.8667 534.398 74.9663 576.483C57.2319 612.193 54.1494 654.153 65.437 707.894C39.3433 722.885 23 750.66 23 781.359C23 812.679 39.8355 840.751 66.6919 855.542C53.6382 927.557 58.3926 980.294 81.4834 1020.92C94.5146 1043.84 113.373 1063.03 139.134 1079.57C159.599 1092.71 184.181 1104.16 215.9 1115.28C215.866 1116.09 215.849 1116.91 215.849 1117.72C215.849 1137.26 225.657 1155.2 241.513 1165.81C235.729 1201.66 233.139 1231.92 233.602 1258.06C234.35 1300.33 243.285 1332.64 260.914 1356.84C278.293 1380.7 303.95 1396.63 339.349 1405.55C356.917 1409.98 377.3 1412.8 401.395 1414.13C403.95 1424.56 409.382 1434.1 417.25 1441.75C428.108 1452.31 442.429 1458.12 457.576 1458.12C461.474 1458.12 465.318 1457.74 469.08 1456.98C485.465 1481.37 501.187 1500.79 516.979 1516.18C545.615 1544.08 574.937 1558.99 606.623 1561.74C610.146 1562.05 613.693 1562.2 617.273 1562.2C644.81 1562.2 674.131 1553.14 706.528 1534.67C738.633 1516.35 774.547 1488.62 819.554 1447.38L826.466 1441.04V144.042L819.476 137.697C774.451 96.8394 736.581 68.1148 703.701 49.8794ZM610.316 1519.28C588.824 1517.41 568.023 1506.41 546.722 1485.65C533.157 1472.44 519.386 1455.38 504.782 1433.69C511.63 1423.99 515.425 1412.27 515.425 1400.27C515.425 1385.29 509.636 1371.08 499.531 1360.44L610.711 1171.44C619.129 1174.18 627.919 1175.57 636.971 1175.57C642.344 1175.57 647.671 1175.07 652.903 1174.07L777.394 1428.03C741.381 1460.1 711.232 1482.91 685.412 1497.64C656.584 1514.08 632.018 1521.17 610.316 1519.28ZM504.656 142.304C541.889 92.147 573.875 68.4761 607.587 65.8736C629.483 64.1792 654.158 71.1421 683.029 87.1548C708.449 101.252 737.553 122.614 771.69 152.252L599.222 279.336C584.432 267.811 566.354 261.57 547.273 261.57C541.449 261.57 535.69 262.157 530.053 263.322L502.892 211.86C510.946 201.708 515.425 189.06 515.425 175.903C515.425 163.805 511.588 152.041 504.656 142.304ZM625.259 313.094L783.843 196.242V588.753L617.35 394.016C626.879 380.032 632.031 363.464 632.031 346.329C632.031 334.845 629.712 323.545 625.259 313.094ZM783.843 978.753V1065.46L718.394 1067.21C710.853 1041.15 691.136 1020.18 665.626 1011.02L684.338 882.383L783.843 978.753ZM420.586 904.813L497.419 774.681C507.5 778.775 518.336 780.904 529.334 780.904C543.426 780.904 557.042 777.482 569.264 770.932L646.586 845.82L623.115 1007.17C604.777 1010.16 588.136 1019.01 575.396 1032.54L438.962 952.357C439.108 950.678 439.182 948.991 439.182 947.299C439.182 931.012 432.279 915.641 420.586 904.813ZM180.523 737.871L346.817 568.993L452.312 660.729C448.385 669.263 445.909 678.4 444.985 687.79L182.948 742.203C182.182 740.735 181.374 739.292 180.523 737.871ZM602.783 653.836C590.813 633.157 570.458 618.348 547.181 613.294L559.932 430.147C568.773 428.823 577.312 426.115 585.287 422.104L754.67 620.222L602.783 653.836ZM517.516 425.71L504.328 615.136C495.337 617.902 486.898 622.146 479.303 627.715L376.779 538.564L498.092 415.366C504.095 419.648 510.624 423.126 517.516 425.71ZM192.482 783.754L451.591 729.951C454.56 736.768 458.424 743.18 463.079 749.009L380.152 889.463C368.486 889.695 357.414 893.349 348.065 899.952L189.519 803.785C191.302 797.282 192.294 790.583 192.482 783.754ZM381.334 1005.15C395.558 1005.15 409.265 999.82 419.767 990.515L554.818 1069.89C554.479 1071.23 554.172 1072.57 553.899 1073.92L322.72 1087C321.111 1084.44 319.304 1082.01 317.314 1079.73L363.084 1002.2C368.935 1004.15 375.092 1005.15 381.334 1005.15ZM614.092 696.146C614.092 695.76 614.089 695.376 614.084 694.99L783.843 657.419V919.418L600.635 741.98C609.375 728.388 614.092 712.496 614.092 696.146ZM719.572 1109.81L783.843 1108.09V1344.35L691.402 1155.78C705.488 1143.92 715.432 1127.7 719.572 1109.81ZM409.875 208.666C420.519 224.197 438.209 233.752 457.576 233.752C460.389 233.752 463.18 233.55 465.934 233.152L491.824 282.207C473.29 298.198 462.516 321.411 462.516 346.329C462.516 358.929 465.293 371.262 470.615 382.522L344.554 510.543L317.393 486.923C320.805 479.458 322.576 471.332 322.576 462.934C322.576 434.128 301.413 410.173 273.817 405.799C265.105 349.718 269.46 311.549 287.647 282.926C307.431 251.792 345.329 228.7 409.875 208.666ZM226.61 506.464C237.073 515.659 250.508 520.784 264.727 520.784C272.239 520.784 279.623 519.334 286.498 516.542L314.591 540.97L150.17 707.947C137.347 700.495 122.886 696.602 107.758 696.602C107.383 696.602 107.008 696.605 106.632 696.61C98.0107 653.988 100.13 621.639 113.141 595.442C129.577 562.346 164.73 534.719 226.61 506.464ZM108.104 866.117C130.774 866.022 152.491 856.714 168.236 840.726L324.665 935.608C323.88 939.428 323.485 943.334 323.485 947.299C323.485 956.807 325.756 965.968 330.11 974.217L279.375 1060.15C277.493 1059.97 275.599 1059.87 273.697 1059.87C258.59 1059.87 244.113 1065.86 233.402 1076.23C171.232 1054.81 136.664 1031.74 118.539 999.855C100.92 968.859 97.5508 926.169 108.104 866.117ZM283.242 1174.78C306.839 1170.85 325.651 1152.58 330.39 1129.26L556.175 1116.48C559.945 1128.34 566.306 1139.26 574.798 1148.42L460.628 1342.5C459.611 1342.45 458.593 1342.42 457.576 1342.42C436.568 1342.42 417.386 1353.89 407.238 1371.75C384.344 1370.65 365.478 1368.17 349.765 1364.22C324.074 1357.74 306.788 1347.43 295.365 1331.75C283.069 1314.87 276.806 1290.52 276.218 1257.31C275.808 1234.22 278.109 1207.14 283.242 1174.78Z" fill="url(#paint1_linear_1741_186)"/>
<path d="M703.701 49.8794C667.299 29.6929 634.787 21.022 604.305 23.3765C556.727 27.0503 514.683 56.6744 468.771 119.136C465.106 118.417 461.365 118.054 457.576 118.054C428.713 118.054 404.72 139.302 400.416 166.977C323.636 190.419 277.57 219.311 251.673 260.068C227.241 298.516 221.124 346.609 232.134 415.134C216.53 425.79 206.879 443.622 206.879 462.934C206.879 464.797 206.967 466.653 207.144 468.497C136.826 500.861 95.8667 534.398 74.9663 576.483C57.2319 612.193 54.1494 654.153 65.437 707.894C39.3433 722.885 23 750.66 23 781.359C23 812.679 39.8355 840.751 66.6919 855.542C53.6382 927.557 58.3926 980.294 81.4834 1020.92C94.5146 1043.84 113.373 1063.03 139.134 1079.57C159.599 1092.71 184.181 1104.16 215.9 1115.28C215.866 1116.09 215.849 1116.91 215.849 1117.72C215.849 1137.26 225.657 1155.2 241.513 1165.81C235.729 1201.66 233.139 1231.92 233.602 1258.06C234.35 1300.33 243.285 1332.64 260.914 1356.84C278.293 1380.7 303.95 1396.63 339.349 1405.55C356.917 1409.98 377.3 1412.8 401.395 1414.13C403.95 1424.56 409.382 1434.1 417.25 1441.75C428.108 1452.31 442.429 1458.12 457.576 1458.12C461.474 1458.12 465.318 1457.74 469.08 1456.98C485.465 1481.37 501.187 1500.79 516.979 1516.18C545.615 1544.08 574.937 1558.99 606.623 1561.74C610.146 1562.05 613.693 1562.2 617.273 1562.2C644.81 1562.2 674.131 1553.14 706.528 1534.67C738.633 1516.35 774.547 1488.62 819.554 1447.38L826.466 1441.04V144.042L819.476 137.697C774.451 96.8394 736.581 68.1148 703.701 49.8794ZM610.316 1519.28C588.824 1517.41 568.023 1506.41 546.722 1485.65C533.157 1472.44 519.386 1455.38 504.782 1433.69C511.63 1423.99 515.425 1412.27 515.425 1400.27C515.425 1385.29 509.636 1371.08 499.531 1360.44L610.711 1171.44C619.129 1174.18 627.919 1175.57 636.971 1175.57C642.344 1175.57 647.671 1175.07 652.903 1174.07L777.394 1428.03C741.381 1460.1 711.232 1482.91 685.412 1497.64C656.584 1514.08 632.018 1521.17 610.316 1519.28ZM504.656 142.304C541.889 92.147 573.875 68.4761 607.587 65.8736C629.483 64.1792 654.158 71.1421 683.029 87.1548C708.449 101.252 737.553 122.614 771.69 152.252L599.222 279.336C584.432 267.811 566.354 261.57 547.273 261.57C541.449 261.57 535.69 262.157 530.053 263.322L502.892 211.86C510.946 201.708 515.425 189.06 515.425 175.903C515.425 163.805 511.588 152.041 504.656 142.304ZM625.259 313.094L783.843 196.242V588.753L617.35 394.016C626.879 380.032 632.031 363.464 632.031 346.329C632.031 334.845 629.712 323.545 625.259 313.094ZM783.843 978.753V1065.46L718.394 1067.21C710.853 1041.15 691.136 1020.18 665.626 1011.02L684.338 882.383L783.843 978.753ZM420.586 904.813L497.419 774.681C507.5 778.775 518.336 780.904 529.334 780.904C543.426 780.904 557.042 777.482 569.264 770.932L646.586 845.82L623.115 1007.17C604.777 1010.16 588.136 1019.01 575.396 1032.54L438.962 952.357C439.108 950.678 439.182 948.991 439.182 947.299C439.182 931.012 432.279 915.641 420.586 904.813ZM180.523 737.871L346.817 568.993L452.312 660.729C448.385 669.263 445.909 678.4 444.985 687.79L182.948 742.203C182.182 740.735 181.374 739.292 180.523 737.871ZM602.783 653.836C590.813 633.157 570.458 618.348 547.181 613.294L559.932 430.147C568.773 428.823 577.312 426.115 585.287 422.104L754.67 620.222L602.783 653.836ZM517.516 425.71L504.328 615.136C495.337 617.902 486.898 622.146 479.303 627.715L376.779 538.564L498.092 415.366C504.095 419.648 510.624 423.126 517.516 425.71ZM192.482 783.754L451.591 729.951C454.56 736.768 458.424 743.18 463.079 749.009L380.152 889.463C368.486 889.695 357.414 893.349 348.065 899.952L189.519 803.785C191.302 797.282 192.294 790.583 192.482 783.754ZM381.334 1005.15C395.558 1005.15 409.265 999.82 419.767 990.515L554.818 1069.89C554.479 1071.23 554.172 1072.57 553.899 1073.92L322.72 1087C321.111 1084.44 319.304 1082.01 317.314 1079.73L363.084 1002.2C368.935 1004.15 375.092 1005.15 381.334 1005.15ZM614.092 696.146C614.092 695.76 614.089 695.376 614.084 694.99L783.843 657.419V919.418L600.635 741.98C609.375 728.388 614.092 712.496 614.092 696.146ZM719.572 1109.81L783.843 1108.09V1344.35L691.402 1155.78C705.488 1143.92 715.432 1127.7 719.572 1109.81ZM409.875 208.666C420.519 224.197 438.209 233.752 457.576 233.752C460.389 233.752 463.18 233.55 465.934 233.152L491.824 282.207C473.29 298.198 462.516 321.411 462.516 346.329C462.516 358.929 465.293 371.262 470.615 382.522L344.554 510.543L317.393 486.923C320.805 479.458 322.576 471.332 322.576 462.934C322.576 434.128 301.413 410.173 273.817 405.799C265.105 349.718 269.46 311.549 287.647 282.926C307.431 251.792 345.329 228.7 409.875 208.666ZM226.61 506.464C237.073 515.659 250.508 520.784 264.727 520.784C272.239 520.784 279.623 519.334 286.498 516.542L314.591 540.97L150.17 707.947C137.347 700.495 122.886 696.602 107.758 696.602C107.383 696.602 107.008 696.605 106.632 696.61C98.0107 653.988 100.13 621.639 113.141 595.442C129.577 562.346 164.73 534.719 226.61 506.464ZM108.104 866.117C130.774 866.022 152.491 856.714 168.236 840.726L324.665 935.608C323.88 939.428 323.485 943.334 323.485 947.299C323.485 956.807 325.756 965.968 330.11 974.217L279.375 1060.15C277.493 1059.97 275.599 1059.87 273.697 1059.87C258.59 1059.87 244.113 1065.86 233.402 1076.23C171.232 1054.81 136.664 1031.74 118.539 999.855C100.92 968.859 97.5508 926.169 108.104 866.117ZM283.242 1174.78C306.839 1170.85 325.651 1152.58 330.39 1129.26L556.175 1116.48C559.945 1128.34 566.306 1139.26 574.798 1148.42L460.628 1342.5C459.611 1342.45 458.593 1342.42 457.576 1342.42C436.568 1342.42 417.386 1353.89 407.238 1371.75C384.344 1370.65 365.478 1368.17 349.765 1364.22C324.074 1357.74 306.788 1347.43 295.365 1331.75C283.069 1314.87 276.806 1290.52 276.218 1257.31C275.808 1234.22 278.109 1207.14 283.242 1174.78Z" stroke="white" stroke-width="46" mask="url(#path-2-outside-2_1741_186)"/>
<defs>
<linearGradient id="paint0_linear_1741_186" x1="1270.54" y1="1565.79" x2="1270.54" y2="29.4583" gradientUnits="userSpaceOnUse">
<stop offset="0.184712" stop-color="#FC75A8"/>
<stop offset="0.717486" stop-color="#FEC9DC"/>
<stop offset="1" stop-color="#FFF5F9"/>
</linearGradient>
<linearGradient id="paint1_linear_1741_186" x1="424.733" y1="1562.2" x2="424.733" y2="23" gradientUnits="userSpaceOnUse">
<stop offset="0.184712" stop-color="#FC75A8"/>
<stop offset="0.717486" stop-color="#FEC9DC"/>
<stop offset="1" stop-color="#FFF5F9"/>
</linearGradient>
</defs>
</svg>
